<svg width="95" height="67" viewBox="0 0 95 67" fill="none" xmlns="http://www.w3.org/2000/svg">
<path d="M95 30.5313C95 31.3186 94.6872 32.0738 94.1305 32.6305C93.5737 33.1873 92.8186 33.5 92.0312 33.5H2.96875C2.18139 33.5 1.42628 33.1873 0.869527 32.6305C0.312778 32.0738 0 31.3186 0 30.5313C0 29.7439 0.312778 28.9888 0.869527 28.4321C1.42628 27.8753 2.18139 27.5625 2.96875 27.5625H13.3297L30.9566 3.28929C31.4908 2.5559 32.1859 1.95468 32.9886 1.5318C33.7914 1.10891 34.6803 0.875613 35.5872 0.849813C36.4942 0.824014 37.3949 1.0064 38.2204 1.38297C39.0459 1.75954 39.774 2.32027 40.349 3.02211L45.1176 8.5514L45.1918 8.63675C45.4681 8.98387 45.8191 9.26419 46.2188 9.45687C46.6184 9.64954 47.0563 9.7496 47.5 9.7496C47.9437 9.7496 48.3816 9.64954 48.7812 9.45687C49.1809 9.26419 49.5319 8.98387 49.8082 8.63675L49.8824 8.5514L54.651 3.02211C55.226 2.32027 55.9541 1.75954 56.7796 1.38297C57.6051 1.0064 58.5058 0.824014 59.4128 0.849813C60.3197 0.875613 61.2086 1.10891 62.0114 1.5318C62.8141 1.95468 63.5092 2.5559 64.0434 3.28929L81.6703 27.5625H92.0312C92.8186 27.5625 93.5737 27.8753 94.1305 28.4321C94.6872 28.9888 95 29.7439 95 30.5313ZM66.7969 39.4375C63.5112 39.4382 60.341 40.6496 57.8923 42.8403C55.4435 45.031 53.8879 48.0472 53.5229 51.3125H41.4771C41.1112 48.0502 39.557 45.0368 37.1109 42.8474C34.6649 40.658 31.4984 39.4459 28.2156 39.4423C24.9328 39.4387 21.7637 40.644 19.3129 42.828C16.8621 45.0121 15.3012 48.0221 14.9282 51.2836C14.5552 54.5451 15.396 57.8298 17.2904 60.5108C19.1847 63.1919 21.9999 65.0816 25.1987 65.8193C28.3975 66.5571 31.756 66.0912 34.6332 64.5106C37.5104 62.9301 39.705 60.3455 40.798 57.25H54.202C55.0184 59.5592 56.4539 61.5995 58.3515 63.1478C60.2492 64.6962 62.536 65.6932 64.962 66.0296C67.388 66.3661 69.8598 66.0292 72.1073 65.0557C74.3547 64.0822 76.2913 62.5096 77.7053 60.5098C79.1193 58.51 79.9564 56.1599 80.125 53.7165C80.2936 51.2731 79.7872 48.8304 78.6613 46.6553C77.5353 44.4803 75.8331 42.6566 73.7406 41.3836C71.6482 40.1107 69.2461 39.4375 66.7969 39.4375Z" fill="#CF1D05"/>
</svg>
