<svg width="83" height="83" viewBox="0 0 83 83" fill="none" xmlns="http://www.w3.org/2000/svg">
<path d="M66.9385 17.7834C64.8813 12.7239 61.3621 8.39281 56.8308 5.34368C52.2994 2.29455 46.9617 0.665894 41.5 0.665894C36.0383 0.665894 30.7007 2.29455 26.1693 5.34368C21.638 8.39281 18.1188 12.7239 16.0616 17.7834C11.4848 19.813 7.59533 23.1272 4.865 27.3238C2.13466 31.5204 0.680782 36.4191 0.679715 41.4258C0.642606 55.1971 12.2319 67.1055 25.9846 67.4765C30.6272 67.5853 35.2148 66.4529 39.2735 64.1961V80.0937C39.2735 80.6843 39.508 81.2506 39.9256 81.6682C40.3432 82.0857 40.9095 82.3203 41.5 82.3203C42.0905 82.3203 42.6569 82.0857 43.0744 81.6682C43.492 81.2506 43.7266 80.6843 43.7266 80.0937V64.1961C47.5857 66.3428 51.9278 67.4717 56.3438 67.4765H57.0006C70.7682 67.1055 82.3575 55.1933 82.3203 41.4258C82.3193 36.4191 80.8654 31.5204 78.1351 27.3238C75.4047 23.1272 71.5153 19.813 66.9385 17.7834ZM56.9004 63.0234C52.1798 63.1479 47.5497 61.7132 43.7266 58.9414V42.8767L60.3071 34.5865C60.8356 34.3227 61.2377 33.8598 61.4249 33.2996C61.6121 32.7394 61.5691 32.1277 61.3053 31.5992C61.0415 31.0707 60.5786 30.6686 60.0184 30.4814C59.4582 30.2942 58.8465 30.3372 58.318 30.601L43.7266 37.8967V26.6562C43.7266 26.0657 43.492 25.4994 43.0744 25.0818C42.6569 24.6643 42.0905 24.4297 41.5 24.4297C40.9095 24.4297 40.3432 24.6643 39.9256 25.0818C39.508 25.4994 39.2735 26.0657 39.2735 26.6562V46.8029L24.6821 39.5072C24.1535 39.2434 23.5419 39.2004 22.9817 39.3876C22.4214 39.5748 21.9585 39.9769 21.6948 40.5054C21.431 41.034 21.388 41.6456 21.5752 42.2058C21.7624 42.7661 22.1645 43.229 22.693 43.4928L39.2735 51.783V58.9414C35.4476 61.7077 30.8194 63.1418 26.0996 63.0234C14.7033 62.7377 5.10315 52.8554 5.13284 41.448C5.13261 37.1592 6.41857 32.9688 8.82456 29.4184C11.2305 25.8679 14.646 23.1206 18.6295 21.5314C18.9188 21.4146 19.1802 21.2382 19.3969 21.0138C19.6136 20.7894 19.7808 20.522 19.8875 20.2289C21.5055 15.7972 24.4467 11.97 28.3126 9.26594C32.1785 6.56184 36.7822 5.11153 41.5 5.11153C46.2178 5.11153 50.8216 6.56184 54.6875 9.26594C58.5534 11.97 61.4946 15.7972 63.1125 20.2289C63.2193 20.522 63.3864 20.7894 63.6031 21.0138C63.8199 21.2382 64.0813 21.4146 64.3705 21.5314C68.3526 23.1195 71.7671 25.865 74.173 29.4133C76.5789 32.9617 77.8657 37.1498 77.8672 41.4369C77.8969 52.848 68.2967 62.7265 56.9004 63.0234Z" fill="#CF1D05"/>
</svg>
