<svg width="68" height="87" viewBox="0 0 68 87" fill="none" xmlns="http://www.w3.org/2000/svg">
<path d="M13.2362 0.877197H32.1225C36.4484 0.877197 38.8946 1.50488 41.7684 4.32095L42.1009 4.65345L64.0493 26.9598C66.6821 29.6571 67.5168 31.6487 67.7254 35.162L67.7662 36.073L67.7831 37.0552L67.7865 73.6777C67.7865 81.7816 63.8525 85.9548 55.9488 86.1176L55.4603 86.1227H13.2362C5.20866 86.1227 1.07786 82.1514 0.915002 74.1714L0.909912 73.6777V13.3612C0.909912 5.25738 4.88125 1.04684 12.7493 0.882287L13.2362 0.877197ZM31.2471 7.27782H13.5941C9.59054 7.27782 7.45304 9.40175 7.31732 13.1051L7.31054 13.4817V73.559C7.31054 77.4065 9.3225 79.5779 13.1632 79.7136L13.5534 79.7221H55.143C59.1449 79.7221 61.2468 77.6728 61.3791 73.9373L61.3859 73.559V37.8543H38.7216C33.9326 37.8543 31.393 35.5284 31.2522 30.8022L31.2471 30.3781V7.27782ZM34.3567 61.4855C43.2511 61.4855 48.7967 67.5977 48.7967 72.0271C48.7967 73.4725 47.9163 74.2426 45.4802 74.3071L45.1392 74.3105H23.5742C20.8616 74.3105 19.8997 73.5386 19.8997 72.0271C19.8997 67.5994 25.4471 61.4855 34.3567 61.4855ZM34.3567 43.4406C38.0312 43.4406 41.2238 46.5824 41.2238 50.8234C41.2238 55.1154 38.0481 58.4133 34.3567 58.4133C30.6822 58.4133 27.4896 55.1154 27.4896 50.8591C27.4896 46.6519 30.6822 43.4406 34.3567 43.4406ZM37.2508 8.51113V29.6232C37.2508 31.1211 37.814 31.7726 39.1729 31.8438L39.4375 31.8506H60.1509L37.2508 8.51113Z" fill="#CF1D05"/>
</svg>
